<?xml version="1.0" standalone="no"?>
<!DOCTYPE svg PUBLIC "-//W3C//DTD SVG 20010904//EN"
 "http://www.w3.org/TR/2001/REC-SVG-20010904/DTD/svg10.dtd">
<svg version="1.0" xmlns="http://www.w3.org/2000/svg"
 width="520.000000pt" height="520.000000pt" viewBox="0 0 520.000000 520.000000"
 preserveAspectRatio="xMidYMid meet">
<metadata>
Created by potrace 1.11, written by Peter Selinger 2001-2013
</metadata>
<g transform="translate(0.000000,520.000000) scale(0.100000,-0.100000)"
fill="#000000" stroke="none">
<path d="M160 5183 c-59 -25 -108 -71 -134 -126 l-25 -52 2 -2415 2 -2415 28
-47 c30 -52 73 -89 130 -113 32 -13 309 -15 2429 -15 1574 0 2405 4 2429 10
54 15 114 63 146 117 l28 48 0 2426 0 2426 -30 48 c-35 57 -95 102 -151 115
-23 6 -1021 9 -2429 9 -2108 -1 -2394 -2 -2425 -16z"/>
</g>
</svg>
